<svg width="302" height="26" viewBox="0 0 302 26" fill="none" xmlns="http://www.w3.org/2000/svg">
<path d="M6.314 7.558L5.544 5.138C5.522 5.072 5.5 5.006 5.5 4.962C5.5 4.896 5.522 4.874 5.588 4.874C5.61 4.874 5.654 4.874 5.698 4.896C6.358 5.05 7.018 5.094 7.656 5.094C8.998 5.094 10.296 4.83 11.66 4.5C11.902 4.434 11.99 4.148 12.232 4.148C12.386 4.148 14.476 5.292 14.476 5.578C14.476 5.71 14.256 5.82 14.014 5.886C12.716 7.624 11.572 9.604 10.538 11.562C12.012 11.65 13.53 11.936 15.004 12.354C15.18 11.364 15.246 10.286 15.246 9.142C15.246 8.9 15.246 8.834 15.4 8.834C15.576 8.834 17.534 9.296 18.128 9.472C18.48 9.56 18.612 9.692 18.612 9.802C18.612 10 18.26 10.198 17.996 10.22C17.908 11.298 17.754 12.31 17.534 13.256C18.964 13.894 20.306 14.686 21.406 15.632L19.558 17.854C19.536 17.876 19.492 17.92 19.448 17.92C19.426 17.92 19.404 17.92 19.382 17.898C18.546 17.084 17.622 16.424 16.698 15.896C14.52 20.912 10.076 21.66 10.032 21.66C9.966 21.66 9.922 21.638 9.856 21.572C9.284 20.824 7.172 19.46 7.172 19.46C10.89 19.086 13.112 17.392 14.256 14.818C12.408 14.18 10.648 13.938 9.328 13.894C7.348 18.052 5.698 19.724 3.718 19.724C2.266 19.724 1.144 18.602 1.144 16.974C1.144 13.762 4.356 11.804 7.678 11.496C8.426 10.066 9.328 8.394 10.032 7.14C9.196 7.338 8.184 7.624 7.15 7.624C6.864 7.624 6.578 7.602 6.314 7.558ZM6.49 13.982C5.236 14.312 3.52 15.192 3.52 16.512C3.52 16.842 3.674 16.996 3.916 16.996C4.796 16.996 5.72 15.412 6.49 13.982ZM27.83 6.458L29.018 3.884C29.612 3.862 30.206 3.862 30.8 3.862C32.934 3.862 35.002 3.994 36.938 4.39L36.168 7.184C36.146 7.228 36.124 7.294 36.08 7.294C36.058 7.294 36.036 7.272 36.014 7.272C34.298 6.656 32.252 6.414 29.854 6.414C29.216 6.414 28.534 6.436 27.83 6.458ZM28.204 7.316L30.734 7.932C30.536 9.406 30.074 11.21 29.854 12.684C30.822 12.068 33.176 10.594 36.366 10.594C40.04 10.594 41.844 12.618 41.844 14.906C41.844 16.556 40.678 21.55 30.58 21.55C30.316 21.55 30.052 21.55 29.81 21.55C29.7 21.55 29.634 21.528 29.612 21.44C29.37 20.604 28.116 18.954 27.896 18.69C28.842 18.756 29.722 18.8 30.536 18.8C37.62 18.8 38.786 16.116 38.786 14.972C38.786 13.938 37.884 13.08 36.058 13.08C33.572 13.08 30.536 14.774 29.656 16.666C29.458 16.666 27.302 16.71 27.126 16.71C27.038 16.71 27.016 16.71 27.016 16.6C27.038 14.356 27.39 12.046 27.676 10.154C27.852 8.988 27.984 8.064 28.006 7.47C28.006 7.36 28.094 7.316 28.16 7.316C28.182 7.316 28.182 7.316 28.204 7.316ZM65.824 16.424L63.03 17.722C62.986 17.744 62.964 17.766 62.92 17.766C62.876 17.766 62.854 17.7 62.854 17.568C62.854 17.414 62.876 17.282 62.876 17.128C62.876 13.872 61.05 9.956 58.124 7.206L60.83 6.348C63.668 8.812 65.824 13.146 65.824 16.16C65.824 16.248 65.824 16.336 65.824 16.424ZM55.506 13.564C55.506 13.564 56.65 15.764 57.354 16.49C57.376 16.512 57.398 16.556 57.398 16.622C57.398 16.644 57.376 16.688 57.376 16.71C56.056 19.504 54.758 20.758 53.306 20.758C52.712 20.758 52.074 20.538 51.392 20.142C48.422 18.404 47.63 15.28 47.63 10.594C47.63 9.692 47.696 8.46 47.696 7.448C47.696 7.162 47.696 6.898 47.674 6.656C47.674 6.524 47.674 6.48 47.762 6.48C47.916 6.48 51.304 6.744 51.304 7.14C51.304 7.272 51.084 7.426 50.688 7.492C50.622 8.13 50.402 10.748 50.402 12.354C50.402 14.356 50.732 16.336 52.558 17.37C52.778 17.502 52.976 17.568 53.152 17.568C53.878 17.568 54.472 16.534 55.506 13.564ZM75.416 8.592L74.976 6.106C74.954 6.04 74.954 5.974 74.954 5.93C74.954 5.886 74.976 5.842 75.042 5.842C75.086 5.842 75.13 5.864 75.218 5.886C76.714 6.326 77.814 6.502 79.002 6.502C79.574 6.502 81.334 6.37 82.016 6.326V6.172C82.016 5.226 81.972 4.258 81.928 2.806C81.928 2.806 84.216 2.894 84.92 2.96C85.184 2.982 85.338 3.07 85.338 3.18C85.338 3.312 85.162 3.444 84.766 3.576C84.744 4.082 84.678 5.27 84.634 6.04C86.218 5.842 87.956 5.578 89.738 5.226L89.672 7.668C89.65 7.756 89.65 7.8 89.562 7.822C87.934 8.13 86.24 8.35 84.612 8.548L84.678 10.924C86.218 10.682 87.758 10.308 89.056 9.802V12.376C89.056 12.464 89.034 12.53 88.946 12.552C87.956 12.838 86.394 13.124 84.788 13.344C84.854 14.356 84.898 15.302 84.942 16.138C87.274 16.864 89.298 17.788 91.036 19.196L88.77 21.176C88.748 21.198 88.726 21.198 88.704 21.198C88.66 21.198 88.638 21.198 88.594 21.154C87.582 20.12 86.152 19.284 85.008 18.756C84.59 20.846 82.522 21.814 80.41 21.814C77.88 21.814 75.592 20.428 75.592 18.624C75.592 17.018 77.484 15.566 80.894 15.566C81.378 15.566 81.884 15.61 82.368 15.654C82.346 14.972 82.302 14.268 82.28 13.586C81.752 13.608 81.246 13.63 80.784 13.63C78.232 13.63 76.406 13.036 76.406 11.958C76.406 11.21 77.286 10.462 78.056 9.824L80.278 10.286C80.014 10.462 79.42 10.88 79.42 11.012C79.42 11.188 79.772 11.298 80.608 11.298C80.718 11.298 80.828 11.298 80.938 11.298C81.334 11.298 81.73 11.276 82.148 11.232C82.126 10.44 82.082 9.626 82.06 8.79C81.29 8.856 79.464 9.01 78.54 9.01C77.484 9.01 76.362 8.9 75.416 8.592ZM82.456 17.986C81.862 17.832 81.158 17.722 80.498 17.722C80.366 17.722 78.408 17.722 78.408 18.536C78.408 19.042 79.31 19.416 80.41 19.416C81.422 19.416 82.236 18.976 82.456 17.986ZM98.45 16.908L96.03 15.456C95.986 15.412 95.964 15.368 95.964 15.346C95.964 15.148 98.032 13.63 99.88 12.09C102.454 9.956 104.302 7.91 105.072 7.074C105.094 7.052 105.116 7.052 105.116 7.03H105.094C105.072 7.03 105.028 7.03 104.984 7.052C103.488 7.558 101.706 8.02 100.166 8.02C100.078 8.02 99.968 8.02 99.88 8.02L98.912 5.38C98.912 5.358 98.912 5.336 98.912 5.314C98.912 5.248 98.934 5.226 98.978 5.226C99 5.226 99 5.226 99.022 5.226C99.462 5.314 99.99 5.358 100.584 5.358C102.608 5.358 105.248 4.874 107.14 4.214C107.382 4.126 107.448 3.994 107.58 3.994C107.844 3.994 109.956 5.534 109.956 5.886C109.956 6.04 109.736 6.106 109.45 6.216C107.778 7.734 105.358 9.89 103.796 11.276C103.752 11.32 103.73 11.342 103.73 11.364C103.73 11.386 103.752 11.386 103.774 11.386C103.796 11.386 103.84 11.386 103.862 11.364C104.522 11.122 105.732 10.814 106.854 10.814C109.912 10.814 112.706 12.552 112.706 15.566C112.706 19.13 108.988 21.946 104.654 21.946C101.002 21.946 99.264 20.186 99.264 18.514C99.264 17.15 100.386 15.808 102.586 15.808C104.874 15.808 106.59 17.282 106.678 19.086C108.834 18.404 109.758 16.864 109.758 15.676C109.758 14.268 108.636 13.058 106.26 13.058C105.908 13.058 105.534 13.102 105.138 13.146C102.322 13.52 100.408 14.642 98.714 16.842C98.67 16.908 98.626 16.952 98.582 16.952C98.538 16.952 98.516 16.93 98.45 16.908ZM104.17 19.548C104.192 19.438 104.192 19.328 104.192 19.24C104.192 17.678 102.498 17.678 102.41 17.678C102.146 17.678 101.42 17.722 101.42 18.338C101.42 18.47 101.464 19.46 104.17 19.548ZM120.098 16.204V3.202H133.474V16.204H130.922V15.566H129.954C129.932 16.908 129.91 18.954 129.91 19.064C129.932 19.614 129.998 20.01 131.538 20.01C133.914 20.01 134.2 19.328 134.244 16.204C134.244 16.204 136.07 17.898 136.774 18.184C136.84 18.206 136.884 18.25 136.884 18.316C136.884 18.36 136.862 18.382 136.862 18.426C136.466 21.638 135.036 22.386 131.582 22.386C129.558 22.386 127.38 22.232 127.38 19.636C127.38 19.592 127.38 19.57 127.38 19.526C127.402 18.426 127.424 16.71 127.424 15.566H125.95C125.774 18.8 124.278 22.056 118.47 22.76C118.426 22.76 118.404 22.782 118.36 22.782C118.294 22.782 118.228 22.738 118.206 22.672C117.898 22.012 116.204 20.516 116.204 20.516C122.166 20.12 123.222 18.14 123.354 15.566H122.606V16.204H120.098ZM122.606 6.722H130.922V5.446H122.606V6.722ZM122.606 10.044H130.922V8.724H122.606V10.044ZM122.606 13.476H130.922V12.046H122.606V13.476ZM144.672 5.996L145.86 3.708C147.444 4.082 148.874 4.258 150.546 4.258C151.47 4.258 152.438 4.214 153.56 4.104C153.56 4.104 152.548 5.952 152.262 6.766C152.218 6.832 152.152 6.876 152.086 6.876C151.866 6.876 151.646 6.876 151.426 6.876C149.072 6.876 146.806 6.656 144.672 5.996ZM143.572 11.782L142.362 9.164C142.318 9.098 142.318 9.054 142.318 9.01C142.318 8.944 142.34 8.9 142.406 8.9C142.428 8.9 142.472 8.922 142.494 8.922C143.044 9.054 143.638 9.054 144.298 9.054C146.85 9.054 151.448 8.108 151.976 7.756C152.152 7.646 152.24 7.558 152.372 7.558C152.46 7.558 152.57 7.58 152.702 7.668C152.878 7.8 154.044 8.482 154.594 8.966C154.726 9.076 154.814 9.186 154.814 9.274C154.814 9.428 154.616 9.538 154.22 9.648C153.23 10.44 151.954 11.804 151.052 12.662C150.238 13.476 149.49 14.268 148.5 15.192C148.544 15.192 148.61 15.192 148.654 15.192C149.82 15.192 150.304 16.468 150.568 17.128C151.118 18.514 151.316 18.91 152.834 18.91C154.308 18.91 156.024 18.514 157.322 18.206C157.322 18.206 156.596 20.274 156.464 21.154C156.464 21.242 156.398 21.286 156.31 21.308C155.386 21.462 154.066 21.616 152.878 21.616C149.93 21.616 149.094 20.846 148.346 18.536C148.016 17.546 147.84 17.018 147.378 17.018C147.07 17.018 146.696 17.238 146.366 17.546C145.376 18.404 143.726 20.406 142.56 21.704C142.56 21.704 140.426 20.604 139.854 20.296C139.788 20.252 139.766 20.23 139.766 20.208C139.766 20.164 139.788 20.142 139.832 20.098C141.834 18.118 144.166 16.248 144.826 15.632C145.882 14.664 148.28 12.156 149.754 10.506C147.642 11.21 145.442 11.782 143.572 11.782ZM163.108 17.986V10.528C163.108 10.528 163.108 9.604 163.042 8.922C163.042 8.922 165.022 8.966 165.638 9.054C165.902 9.098 166.034 9.208 166.034 9.318C166.034 9.472 165.836 9.626 165.396 9.692C165.352 10.11 165.352 10.66 165.352 10.66V17.414C165.748 17.304 166.122 17.172 166.518 17.062V6.458H162.47V4.258H171.952V6.458H168.806V9.648H170.918V11.518C172.788 7.822 173.338 2.652 173.338 2.652C173.338 2.652 175.626 2.872 176.022 2.982C176.286 3.048 176.418 3.18 176.418 3.29C176.418 3.422 176.22 3.554 175.714 3.576C175.604 4.126 175.428 5.006 175.186 6.062H181.786V8.438H180.114C179.806 11.694 178.992 14.422 177.65 16.622C178.992 18.272 180.752 19.504 182.798 20.428C182.798 20.428 180.862 21.572 180.268 22.166C180.224 22.21 180.18 22.232 180.158 22.232C179.982 22.232 177.87 20.89 176.132 18.646C173.602 21.484 170.148 22.65 170.104 22.65C170.06 22.65 170.038 22.628 169.994 22.584C169.444 21.902 167.178 20.846 167.178 20.846C170.632 19.944 173.096 18.47 174.746 16.49C174.108 15.28 173.58 13.916 173.206 12.354C172.766 13.322 172.59 13.608 172.502 13.608C172.48 13.608 172.458 13.608 172.414 13.586C171.666 13.278 169.928 13.146 169.928 13.146C170.236 12.75 170.5 12.31 170.764 11.826H168.806V16.292C170.148 15.83 171.292 15.39 171.886 15.104C171.886 15.104 171.864 15.698 171.864 16.292C171.864 16.688 171.864 17.084 171.908 17.282C171.908 17.326 171.908 17.348 171.908 17.37C171.908 17.436 171.886 17.436 171.776 17.48C169.928 18.25 166.298 19.636 163.35 20.428C163.35 20.89 163.218 21.11 163.064 21.11C162.954 21.11 162.844 21 162.734 20.802C162.426 20.23 161.634 18.294 161.634 18.294C162.096 18.206 162.602 18.118 163.108 17.986ZM177.672 8.438H174.592C174.79 10.726 175.34 12.684 176.154 14.334C177.012 12.618 177.496 10.66 177.672 8.438ZM185.24 10.088L186.868 8.13C186.868 8.13 189.31 9.318 190.63 10.418C190.476 9.912 190.344 9.516 190.344 9.516C191.224 9.472 192.17 9.406 193.094 9.34C194.854 5.886 195.624 2.542 195.624 2.542C195.624 2.542 197.956 2.982 198.792 3.29C198.99 3.356 199.144 3.51 199.144 3.664C199.144 3.818 198.968 3.95 198.462 3.95C198.418 3.95 198.352 3.95 198.286 3.95C198.044 4.434 197.142 6.744 196.02 9.076C198.044 8.878 199.914 8.658 201.234 8.482C200.706 7.712 200.09 6.92 199.386 6.15L201.498 5.006C204.028 7.58 206.074 10.902 206.074 10.902L203.61 12.442C203.412 12.068 203.082 11.408 202.598 10.572C200.464 10.88 195.646 11.54 191.818 11.892C191.796 12.354 191.664 12.508 191.554 12.508C191.334 12.508 191.136 12.046 190.718 10.704L189.2 12.772C187.924 11.386 185.284 10.11 185.24 10.088ZM186.626 4.676L188.496 3.048C188.496 3.048 190.85 4.544 192.06 5.974L190.124 7.888C189.002 6.282 186.626 4.676 186.626 4.676ZM192.544 22.716V13.256H203.852V22.606H201.168V21.396H195.162V22.716H192.544ZM189.662 13.344C189.662 13.344 190.784 14.796 191.444 15.214C191.532 15.258 191.554 15.302 191.554 15.346C191.554 15.566 189.772 19.152 188.232 21.66C188.342 21.836 188.408 22.012 188.408 22.144C188.408 22.254 188.342 22.342 188.21 22.342C188.144 22.342 188.078 22.32 187.968 22.276C187.11 21.88 185.438 20.78 185.438 20.78C187.242 18.888 189.134 14.708 189.662 13.344ZM195.162 19.152H201.168V15.522H195.162V19.152ZM209.748 4.676L211.178 2.96C211.178 2.96 213.84 3.708 215.446 4.72L214.016 6.59C212.388 5.446 209.748 4.676 209.748 4.676ZM212.366 19.24V11.166H214.918C214.544 10.726 213.422 10 213.004 9.736C212.344 10.022 211.552 10.33 210.672 10.638C210.672 10.682 210.672 10.726 210.672 10.748C210.672 11.034 210.584 11.188 210.452 11.188C210.386 11.188 210.276 11.122 210.188 10.99C209.748 10.33 208.978 8.724 208.978 8.724C211.618 8.174 214.808 6.612 214.808 6.612C214.808 6.612 214.808 6.7 214.83 6.876C217.25 5.292 218.218 2.542 218.218 2.542C218.218 2.542 220.088 2.762 220.66 2.828C220.968 2.872 221.1 2.982 221.1 3.092C221.1 3.224 220.858 3.378 220.396 3.4C220.396 3.4 220.308 3.576 220.176 3.862H226.666C226.798 3.862 226.93 3.73 227.084 3.73C227.26 3.73 228.778 4.72 228.778 4.984C228.778 5.094 228.668 5.16 228.404 5.248C228.404 5.248 227.106 6.964 225.808 7.822C225.72 7.888 225.676 7.932 225.61 7.932C225.566 7.932 225.522 7.91 225.456 7.866C224.84 7.47 223.168 6.964 223.168 6.964C224.554 6.326 225.324 5.578 225.324 5.578L219.186 5.6C218.042 7.382 217.36 7.712 217.36 7.712C217.316 7.712 217.272 7.69 217.206 7.668C216.678 7.404 215.336 7.118 214.83 7.03C214.874 7.47 214.94 8.196 215.072 8.592C215.094 8.658 215.116 8.68 215.116 8.724C215.116 8.834 213.752 9.406 213.29 9.604C217.844 9.384 219.824 8.174 219.824 6.678C219.824 6.502 219.78 6.04 219.78 6.04C219.78 6.04 221.672 6.084 222.42 6.15C222.706 6.172 222.816 6.26 222.816 6.326C222.816 6.458 222.574 6.59 222.222 6.634L222.244 6.744C222.464 7.822 224.07 9.098 229.592 9.406C229.592 9.406 227.788 10.726 227.348 11.364C227.282 11.474 227.238 11.496 227.172 11.496C226.974 11.496 226.138 11.32 226.072 11.298V19.24H223.652V18.932H222.288C223.41 19.438 225.236 20.34 229.526 20.406C229.526 20.406 227.92 21.77 227.524 22.408C227.458 22.518 227.414 22.562 227.326 22.562C227.304 22.562 224.488 22.518 220.176 20.362L221.98 18.932H216.348C217.976 20.01 218.394 20.296 218.394 20.494C218.394 20.582 218.284 20.648 218.108 20.648C217.976 20.648 217.8 20.604 217.602 20.538C217.602 20.538 214.346 22.386 210.848 22.738C210.782 22.738 210.738 22.76 210.716 22.76C210.65 22.76 210.606 22.738 210.562 22.65C210.078 21.968 208.494 20.736 208.494 20.736C212.388 20.604 215.072 19.438 215.886 18.932H214.764V19.24H212.366ZM216.414 11.166H225.5C223.3 10.616 221.98 9.736 221.188 8.834C220.286 9.89 218.768 10.792 216.414 11.166ZM214.764 13.432H223.652V12.618H214.764V13.432ZM214.764 15.478H223.652V14.642H214.764V15.478ZM214.764 17.524H223.652V16.688H214.764V17.524ZM233.398 21.858V19.548H237.842C237.336 17.832 236.126 16.446 236.126 16.446L238.392 15.742C238.392 15.742 239.8 17.414 240.218 19.042L238.788 19.548H241.362V15.346H234.322V13.08H241.362V10.924H238.414V10.022C236.192 11.936 234.52 12.772 234.41 12.772C234.366 12.772 234.322 12.75 234.278 12.684C233.794 12.068 232.012 10.924 232.012 10.924C238.172 8.416 241.516 2.872 241.626 2.608C241.626 2.608 243.562 3.004 244.112 3.18C244.266 3.224 244.376 3.334 244.376 3.422C244.376 3.554 244.244 3.664 243.914 3.73C245.058 5.094 248.38 8.614 253.33 10.352C253.33 10.352 251.548 11.672 251.02 12.376C250.954 12.442 250.932 12.464 250.866 12.464C250.734 12.464 248.776 11.496 246.796 9.846V10.924H243.87V13.08H250.91V15.346H243.87V19.548H244.838C245.256 18.712 245.938 17.216 246.422 15.632C246.422 15.632 248.644 16.27 249.04 16.446C249.26 16.534 249.392 16.666 249.392 16.776C249.392 16.886 249.194 16.996 248.754 16.996C248.732 16.996 248.71 16.996 248.688 16.996C248.336 17.788 247.786 18.8 247.368 19.548H251.834V21.858H233.398ZM239.8 8.746H245.542C244.244 7.536 243.21 6.348 242.572 5.578C241.89 6.458 240.966 7.58 239.8 8.746Z" fill="black"/>
<rect x="262" width="40" height="14" rx="7" fill="url(#paint0_linear_953_54660)"/>
<path d="M269.141 11V2.6H272.909C273.869 2.6 274.625 2.864 275.105 3.344C275.477 3.716 275.669 4.172 275.669 4.736V4.76C275.669 5.768 275.093 6.308 274.469 6.632C275.453 6.968 276.137 7.532 276.137 8.672V8.696C276.137 10.196 274.901 11 273.029 11H269.141ZM274.193 5V4.976C274.193 4.316 273.665 3.908 272.717 3.908H270.593V6.14H272.609C273.557 6.14 274.193 5.768 274.193 5ZM274.661 8.516C274.661 7.808 274.097 7.388 272.933 7.388H270.593V9.692H273.041C274.049 9.692 274.661 9.296 274.661 8.54V8.516ZM280.537 11.144C278.701 11.144 277.285 9.812 277.285 7.856V7.832C277.285 6.02 278.569 4.532 280.381 4.532C282.397 4.532 283.417 6.116 283.417 7.94C283.417 8.072 283.405 8.204 283.393 8.348H278.737C278.893 9.38 279.625 9.956 280.561 9.956C281.269 9.956 281.773 9.692 282.277 9.2L283.129 9.956C282.529 10.676 281.701 11.144 280.537 11.144ZM278.725 7.388H281.977C281.881 6.452 281.329 5.72 280.369 5.72C279.481 5.72 278.857 6.404 278.725 7.388ZM286.999 11.108C285.931 11.108 285.175 10.64 285.175 9.248V5.912H284.371V4.664H285.175V2.924H286.627V4.664H288.331V5.912H286.627V9.02C286.627 9.584 286.915 9.812 287.407 9.812C287.731 9.812 288.019 9.74 288.307 9.596V10.784C287.947 10.988 287.551 11.108 286.999 11.108ZM291.632 11.132C290.444 11.132 289.388 10.448 289.388 9.176V9.152C289.388 7.784 290.456 7.112 292.004 7.112C292.712 7.112 293.216 7.22 293.708 7.376V7.22C293.708 6.32 293.156 5.84 292.136 5.84C291.428 5.84 290.9 5.996 290.324 6.236L289.94 5.096C290.636 4.784 291.32 4.58 292.328 4.58C293.276 4.58 293.984 4.832 294.428 5.288C294.896 5.744 295.112 6.416 295.112 7.244V11H293.696V10.208C293.264 10.724 292.604 11.132 291.632 11.132ZM292.04 10.076C293 10.076 293.732 9.524 293.732 8.72V8.288C293.36 8.144 292.868 8.036 292.292 8.036C291.356 8.036 290.804 8.432 290.804 9.092V9.116C290.804 9.728 291.344 10.076 292.04 10.076Z" fill="black"/>
<defs>
<linearGradient id="paint0_linear_953_54660" x1="302" y1="13.5634" x2="284.101" y2="-13.9507" gradientUnits="userSpaceOnUse">
<stop stop-color="#D6FFAD"/>
<stop offset="1" stop-color="#64D8C6"/>
</linearGradient>
</defs>
</svg>
