<svg width="181" height="16" viewBox="0 0 181 16" fill="none" xmlns="http://www.w3.org/2000/svg">
<path d="M4.592 4.224L4.032 2.464C4.016 2.416 4 2.368 4 2.336C4 2.288 4.016 2.272 4.064 2.272C4.08 2.272 4.112 2.272 4.144 2.288C4.624 2.4 5.104 2.432 5.568 2.432C6.544 2.432 7.488 2.24 8.48 2C8.656 1.952 8.72 1.744 8.896 1.744C9.008 1.744 10.528 2.576 10.528 2.784C10.528 2.88 10.368 2.96 10.192 3.008C9.248 4.272 8.416 5.712 7.664 7.136C8.736 7.2 9.84 7.408 10.912 7.712C11.04 6.992 11.088 6.208 11.088 5.376C11.088 5.2 11.088 5.152 11.2 5.152C11.328 5.152 12.752 5.488 13.184 5.616C13.44 5.68 13.536 5.776 13.536 5.856C13.536 6 13.28 6.144 13.088 6.16C13.024 6.944 12.912 7.68 12.752 8.368C13.792 8.832 14.768 9.408 15.568 10.096L14.224 11.712C14.208 11.728 14.176 11.76 14.144 11.76C14.128 11.76 14.112 11.76 14.096 11.744C13.488 11.152 12.816 10.672 12.144 10.288C10.56 13.936 7.328 14.48 7.296 14.48C7.248 14.48 7.216 14.464 7.168 14.416C6.752 13.872 5.216 12.88 5.216 12.88C7.92 12.608 9.536 11.376 10.368 9.504C9.024 9.04 7.744 8.864 6.784 8.832C5.344 11.856 4.144 13.072 2.704 13.072C1.648 13.072 0.832 12.256 0.832 11.072C0.832 8.736 3.168 7.312 5.584 7.088C6.128 6.048 6.784 4.832 7.296 3.92C6.688 4.064 5.952 4.272 5.2 4.272C4.992 4.272 4.784 4.256 4.592 4.224ZM4.72 8.896C3.808 9.136 2.56 9.776 2.56 10.736C2.56 10.976 2.672 11.088 2.848 11.088C3.488 11.088 4.16 9.936 4.72 8.896ZM19.76 3.424L20.624 1.552C21.056 1.536 21.488 1.536 21.92 1.536C23.472 1.536 24.976 1.632 26.384 1.92L25.824 3.952C25.808 3.984 25.792 4.032 25.76 4.032C25.744 4.032 25.728 4.016 25.712 4.016C24.464 3.568 22.976 3.392 21.232 3.392C20.768 3.392 20.272 3.408 19.76 3.424ZM20.032 4.048L21.872 4.496C21.728 5.568 21.392 6.88 21.232 7.952C21.936 7.504 23.648 6.432 25.968 6.432C28.64 6.432 29.952 7.904 29.952 9.568C29.952 10.768 29.104 14.4 21.76 14.4C21.568 14.4 21.376 14.4 21.2 14.4C21.12 14.4 21.072 14.384 21.056 14.32C20.88 13.712 19.968 12.512 19.808 12.32C20.496 12.368 21.136 12.4 21.728 12.4C26.88 12.4 27.728 10.448 27.728 9.616C27.728 8.864 27.072 8.24 25.744 8.24C23.936 8.24 21.728 9.472 21.088 10.848C20.944 10.848 19.376 10.88 19.248 10.88C19.184 10.88 19.168 10.88 19.168 10.8C19.184 9.168 19.44 7.488 19.648 6.112C19.776 5.264 19.872 4.592 19.888 4.16C19.888 4.08 19.952 4.048 20 4.048C20.016 4.048 20.016 4.048 20.032 4.048ZM47.072 10.672L45.04 11.616C45.008 11.632 44.992 11.648 44.96 11.648C44.928 11.648 44.912 11.6 44.912 11.504C44.912 11.392 44.928 11.296 44.928 11.184C44.928 8.816 43.6 5.968 41.472 3.968L43.44 3.344C45.504 5.136 47.072 8.288 47.072 10.48C47.072 10.544 47.072 10.608 47.072 10.672ZM39.568 8.592C39.568 8.592 40.4 10.192 40.912 10.72C40.928 10.736 40.944 10.768 40.944 10.816C40.944 10.832 40.928 10.864 40.928 10.88C39.968 12.912 39.024 13.824 37.968 13.824C37.536 13.824 37.072 13.664 36.576 13.376C34.416 12.112 33.84 9.84 33.84 6.432C33.84 5.776 33.888 4.88 33.888 4.144C33.888 3.936 33.888 3.744 33.872 3.568C33.872 3.472 33.872 3.44 33.936 3.44C34.048 3.44 36.512 3.632 36.512 3.92C36.512 4.016 36.352 4.128 36.064 4.176C36.016 4.64 35.856 6.544 35.856 7.712C35.856 9.168 36.096 10.608 37.424 11.36C37.584 11.456 37.728 11.504 37.856 11.504C38.384 11.504 38.816 10.752 39.568 8.592ZM55.4849 4.976L55.1649 3.168C55.1489 3.12 55.1489 3.072 55.1489 3.04C55.1489 3.008 55.1649 2.976 55.2129 2.976C55.2449 2.976 55.2769 2.992 55.3409 3.008C56.4289 3.328 57.2289 3.456 58.0929 3.456C58.5089 3.456 59.7889 3.36 60.2849 3.328V3.216C60.2849 2.528 60.2529 1.824 60.2209 0.768C60.2209 0.768 61.8849 0.832 62.3969 0.879999C62.5889 0.895999 62.7009 0.959999 62.7009 1.04C62.7009 1.136 62.5729 1.232 62.2849 1.328C62.2689 1.696 62.2209 2.56 62.1889 3.12C63.3409 2.976 64.6049 2.784 65.9009 2.528L65.8529 4.304C65.8369 4.368 65.8369 4.4 65.7729 4.416C64.5889 4.64 63.3569 4.8 62.1729 4.944L62.2209 6.672C63.3409 6.496 64.4609 6.224 65.4049 5.856V7.728C65.4049 7.792 65.3889 7.84 65.3249 7.856C64.6049 8.064 63.4689 8.272 62.3009 8.432C62.3489 9.168 62.3809 9.856 62.4129 10.464C64.1089 10.992 65.5809 11.664 66.8449 12.688L65.1969 14.128C65.1809 14.144 65.1649 14.144 65.1489 14.144C65.1169 14.144 65.1009 14.144 65.0689 14.112C64.3329 13.36 63.2929 12.752 62.4609 12.368C62.1569 13.888 60.6529 14.592 59.1169 14.592C57.2769 14.592 55.6129 13.584 55.6129 12.272C55.6129 11.104 56.9889 10.048 59.4689 10.048C59.8209 10.048 60.1889 10.08 60.5409 10.112C60.5249 9.616 60.4929 9.104 60.4769 8.608C60.0929 8.624 59.7249 8.64 59.3889 8.64C57.5329 8.64 56.2049 8.208 56.2049 7.424C56.2049 6.88 56.8449 6.336 57.4049 5.872L59.0209 6.208C58.8289 6.336 58.3969 6.64 58.3969 6.736C58.3969 6.864 58.6529 6.944 59.2609 6.944C59.3409 6.944 59.4209 6.944 59.5009 6.944C59.7889 6.944 60.0769 6.928 60.3809 6.896C60.3649 6.32 60.3329 5.728 60.3169 5.12C59.7569 5.168 58.4289 5.28 57.7569 5.28C56.9889 5.28 56.1729 5.2 55.4849 4.976ZM60.6049 11.808C60.1729 11.696 59.6609 11.616 59.1809 11.616C59.0849 11.616 57.6609 11.616 57.6609 12.208C57.6609 12.576 58.3169 12.848 59.1169 12.848C59.8529 12.848 60.4449 12.528 60.6049 11.808ZM72.2369 11.024L70.4769 9.968C70.4449 9.936 70.4289 9.904 70.4289 9.888C70.4289 9.744 71.9329 8.64 73.2769 7.52C75.1489 5.968 76.4929 4.48 77.0529 3.872C77.0689 3.856 77.0849 3.856 77.0849 3.84H77.0689C77.0529 3.84 77.0209 3.84 76.9889 3.856C75.9009 4.224 74.6049 4.56 73.4849 4.56C73.4209 4.56 73.3409 4.56 73.2769 4.56L72.5729 2.64C72.5729 2.624 72.5729 2.608 72.5729 2.592C72.5729 2.544 72.5889 2.528 72.6209 2.528C72.6369 2.528 72.6369 2.528 72.6529 2.528C72.9729 2.592 73.3569 2.624 73.7889 2.624C75.2609 2.624 77.1809 2.272 78.5569 1.792C78.7329 1.728 78.7809 1.632 78.8769 1.632C79.0689 1.632 80.6049 2.752 80.6049 3.008C80.6049 3.12 80.4449 3.168 80.2369 3.248C79.0209 4.352 77.2609 5.92 76.1249 6.928C76.0929 6.96 76.0769 6.976 76.0769 6.992C76.0769 7.008 76.0929 7.008 76.1089 7.008C76.1249 7.008 76.1569 7.008 76.1729 6.992C76.6529 6.816 77.5329 6.592 78.3489 6.592C80.5729 6.592 82.6049 7.856 82.6049 10.048C82.6049 12.64 79.9009 14.688 76.7489 14.688C74.0929 14.688 72.8289 13.408 72.8289 12.192C72.8289 11.2 73.6449 10.224 75.2449 10.224C76.9089 10.224 78.1569 11.296 78.2209 12.608C79.7889 12.112 80.4609 10.992 80.4609 10.128C80.4609 9.104 79.6449 8.224 77.9169 8.224C77.6609 8.224 77.3889 8.256 77.1009 8.288C75.0529 8.56 73.6609 9.376 72.4289 10.976C72.3969 11.024 72.3649 11.056 72.3329 11.056C72.3009 11.056 72.2849 11.04 72.2369 11.024ZM76.3969 12.944C76.4129 12.864 76.4129 12.784 76.4129 12.72C76.4129 11.584 75.1809 11.584 75.1169 11.584C74.9249 11.584 74.3969 11.616 74.3969 12.064C74.3969 12.16 74.4289 12.88 76.3969 12.944ZM87.9809 10.512V1.056H97.7089V10.512H95.8529V10.048H95.1489C95.1329 11.024 95.1169 12.512 95.1169 12.592C95.1329 12.992 95.1809 13.28 96.3009 13.28C98.0289 13.28 98.2369 12.784 98.2689 10.512C98.2689 10.512 99.5969 11.744 100.109 11.952C100.157 11.968 100.189 12 100.189 12.048C100.189 12.08 100.173 12.096 100.173 12.128C99.8849 14.464 98.8449 15.008 96.3329 15.008C94.8609 15.008 93.2769 14.896 93.2769 13.008C93.2769 12.976 93.2769 12.96 93.2769 12.928C93.2929 12.128 93.3089 10.88 93.3089 10.048H92.2369C92.1089 12.4 91.0209 14.768 86.7969 15.28C86.7649 15.28 86.7489 15.296 86.7169 15.296C86.6689 15.296 86.6209 15.264 86.6049 15.216C86.3809 14.736 85.1489 13.648 85.1489 13.648C89.4849 13.36 90.2529 11.92 90.3489 10.048H89.8049V10.512H87.9809ZM89.8049 3.616H95.8529V2.688H89.8049V3.616ZM89.8049 6.032H95.8529V5.072H89.8049V6.032ZM89.8049 8.528H95.8529V7.488H89.8049V8.528ZM105.853 3.088L106.717 1.424C107.869 1.696 108.909 1.824 110.125 1.824C110.797 1.824 111.501 1.792 112.317 1.712C112.317 1.712 111.581 3.056 111.373 3.648C111.341 3.696 111.293 3.728 111.245 3.728C111.085 3.728 110.925 3.728 110.765 3.728C109.053 3.728 107.405 3.568 105.853 3.088ZM105.053 7.296L104.173 5.392C104.141 5.344 104.141 5.312 104.141 5.28C104.141 5.232 104.157 5.2 104.205 5.2C104.221 5.2 104.253 5.216 104.269 5.216C104.669 5.312 105.101 5.312 105.581 5.312C107.437 5.312 110.781 4.624 111.165 4.368C111.293 4.288 111.357 4.224 111.453 4.224C111.517 4.224 111.597 4.24 111.693 4.304C111.821 4.4 112.669 4.896 113.069 5.248C113.165 5.328 113.229 5.408 113.229 5.472C113.229 5.584 113.085 5.664 112.797 5.744C112.077 6.32 111.149 7.312 110.493 7.936C109.901 8.528 109.357 9.104 108.637 9.776C108.669 9.776 108.717 9.776 108.749 9.776C109.597 9.776 109.949 10.704 110.141 11.184C110.541 12.192 110.685 12.48 111.789 12.48C112.861 12.48 114.109 12.192 115.053 11.968C115.053 11.968 114.525 13.472 114.429 14.112C114.429 14.176 114.381 14.208 114.317 14.224C113.645 14.336 112.685 14.448 111.821 14.448C109.677 14.448 109.069 13.888 108.525 12.208C108.285 11.488 108.157 11.104 107.821 11.104C107.597 11.104 107.325 11.264 107.085 11.488C106.365 12.112 105.165 13.568 104.317 14.512C104.317 14.512 102.765 13.712 102.349 13.488C102.301 13.456 102.285 13.44 102.285 13.424C102.285 13.392 102.301 13.376 102.333 13.344C103.789 11.904 105.485 10.544 105.965 10.096C106.733 9.392 108.477 7.568 109.549 6.368C108.013 6.88 106.413 7.296 105.053 7.296ZM118.301 11.808V6.384C118.301 6.384 118.301 5.712 118.253 5.216C118.253 5.216 119.693 5.248 120.141 5.312C120.333 5.344 120.429 5.424 120.429 5.504C120.429 5.616 120.285 5.728 119.965 5.776C119.933 6.08 119.933 6.48 119.933 6.48V11.392C120.221 11.312 120.493 11.216 120.781 11.136V3.424H117.837V1.824H124.733V3.424H122.445V5.744H123.981V7.104C125.341 4.416 125.741 0.655999 125.741 0.655999C125.741 0.655999 127.405 0.815999 127.693 0.895999C127.885 0.943999 127.981 1.04 127.981 1.12C127.981 1.216 127.837 1.312 127.469 1.328C127.389 1.728 127.261 2.368 127.085 3.136H131.885V4.864H130.669C130.445 7.232 129.853 9.216 128.877 10.816C129.853 12.016 131.133 12.912 132.621 13.584C132.621 13.584 131.213 14.416 130.781 14.848C130.749 14.88 130.717 14.896 130.701 14.896C130.573 14.896 129.037 13.92 127.773 12.288C125.933 14.352 123.421 15.2 123.389 15.2C123.357 15.2 123.341 15.184 123.309 15.152C122.909 14.656 121.261 13.888 121.261 13.888C123.773 13.232 125.565 12.16 126.765 10.72C126.301 9.84 125.917 8.848 125.645 7.712C125.325 8.416 125.197 8.624 125.133 8.624C125.117 8.624 125.101 8.624 125.069 8.608C124.525 8.384 123.261 8.288 123.261 8.288C123.485 8 123.677 7.68 123.869 7.328H122.445V10.576C123.421 10.24 124.253 9.92 124.685 9.712C124.685 9.712 124.669 10.144 124.669 10.576C124.669 10.864 124.669 11.152 124.701 11.296C124.701 11.328 124.701 11.344 124.701 11.36C124.701 11.408 124.685 11.408 124.605 11.44C123.261 12 120.621 13.008 118.477 13.584C118.477 13.92 118.381 14.08 118.269 14.08C118.189 14.08 118.109 14 118.029 13.856C117.805 13.44 117.229 12.032 117.229 12.032C117.565 11.968 117.933 11.904 118.301 11.808ZM128.893 4.864H126.653C126.797 6.528 127.197 7.952 127.789 9.152C128.413 7.904 128.765 6.48 128.893 4.864ZM133.277 6.064L134.461 4.64C134.461 4.64 136.237 5.504 137.197 6.304C137.085 5.936 136.989 5.648 136.989 5.648C137.629 5.616 138.317 5.568 138.989 5.52C140.269 3.008 140.829 0.575999 140.829 0.575999C140.829 0.575999 142.525 0.895999 143.133 1.12C143.277 1.168 143.389 1.28 143.389 1.392C143.389 1.504 143.261 1.6 142.893 1.6C142.861 1.6 142.813 1.6 142.765 1.6C142.589 1.952 141.933 3.632 141.117 5.328C142.589 5.184 143.949 5.024 144.909 4.896C144.525 4.336 144.077 3.76 143.565 3.2L145.101 2.368C146.941 4.24 148.429 6.656 148.429 6.656L146.637 7.776C146.493 7.504 146.253 7.024 145.901 6.416C144.349 6.64 140.845 7.12 138.061 7.376C138.045 7.712 137.949 7.824 137.869 7.824C137.709 7.824 137.565 7.488 137.261 6.512L136.157 8.016C135.229 7.008 133.309 6.08 133.277 6.064ZM134.285 2.128L135.645 0.943999C135.645 0.943999 137.357 2.032 138.237 3.072L136.829 4.464C136.013 3.296 134.285 2.128 134.285 2.128ZM138.589 15.248V8.368H146.813V15.168H144.861V14.288H140.493V15.248H138.589ZM136.493 8.432C136.493 8.432 137.309 9.488 137.789 9.792C137.853 9.824 137.869 9.856 137.869 9.888C137.869 10.048 136.573 12.656 135.453 14.48C135.533 14.608 135.581 14.736 135.581 14.832C135.581 14.912 135.533 14.976 135.437 14.976C135.389 14.976 135.341 14.96 135.261 14.928C134.637 14.64 133.421 13.84 133.421 13.84C134.733 12.464 136.109 9.424 136.493 8.432ZM140.493 12.656H144.861V10.016H140.493V12.656ZM149.981 2.128L151.021 0.879999C151.021 0.879999 152.957 1.424 154.125 2.16L153.085 3.52C151.901 2.688 149.981 2.128 149.981 2.128ZM151.885 12.72V6.848H153.741C153.469 6.528 152.653 6 152.349 5.808C151.869 6.016 151.293 6.24 150.653 6.464C150.653 6.496 150.653 6.528 150.653 6.544C150.653 6.752 150.589 6.864 150.493 6.864C150.445 6.864 150.365 6.816 150.301 6.72C149.981 6.24 149.421 5.072 149.421 5.072C151.341 4.672 153.661 3.536 153.661 3.536C153.661 3.536 153.661 3.6 153.677 3.728C155.437 2.576 156.141 0.575999 156.141 0.575999C156.141 0.575999 157.501 0.735999 157.917 0.783999C158.141 0.815999 158.237 0.895999 158.237 0.976C158.237 1.072 158.061 1.184 157.725 1.2C157.725 1.2 157.661 1.328 157.565 1.536H162.285C162.381 1.536 162.477 1.44 162.589 1.44C162.717 1.44 163.821 2.16 163.821 2.352C163.821 2.432 163.741 2.48 163.549 2.544C163.549 2.544 162.605 3.792 161.661 4.416C161.597 4.464 161.565 4.496 161.517 4.496C161.485 4.496 161.453 4.48 161.405 4.448C160.957 4.16 159.741 3.792 159.741 3.792C160.749 3.328 161.309 2.784 161.309 2.784L156.845 2.8C156.013 4.096 155.517 4.336 155.517 4.336C155.485 4.336 155.453 4.32 155.405 4.304C155.021 4.112 154.045 3.904 153.677 3.84C153.709 4.16 153.757 4.688 153.853 4.976C153.869 5.024 153.885 5.04 153.885 5.072C153.885 5.152 152.893 5.568 152.557 5.712C155.869 5.552 157.309 4.672 157.309 3.584C157.309 3.456 157.277 3.12 157.277 3.12C157.277 3.12 158.653 3.152 159.197 3.2C159.405 3.216 159.485 3.28 159.485 3.328C159.485 3.424 159.309 3.52 159.053 3.552L159.069 3.632C159.229 4.416 160.397 5.344 164.413 5.568C164.413 5.568 163.101 6.528 162.781 6.992C162.733 7.072 162.701 7.088 162.653 7.088C162.509 7.088 161.901 6.96 161.853 6.944V12.72H160.093V12.496H159.101C159.917 12.864 161.245 13.52 164.365 13.568C164.365 13.568 163.197 14.56 162.909 15.024C162.861 15.104 162.829 15.136 162.765 15.136C162.749 15.136 160.701 15.104 157.565 13.536L158.877 12.496H154.781C155.965 13.28 156.269 13.488 156.269 13.632C156.269 13.696 156.189 13.744 156.061 13.744C155.965 13.744 155.837 13.712 155.693 13.664C155.693 13.664 153.325 15.008 150.781 15.264C150.733 15.264 150.701 15.28 150.685 15.28C150.637 15.28 150.605 15.264 150.573 15.2C150.221 14.704 149.069 13.808 149.069 13.808C151.901 13.712 153.853 12.864 154.445 12.496H153.629V12.72H151.885ZM154.829 6.848H161.437C159.837 6.448 158.877 5.808 158.301 5.152C157.645 5.92 156.541 6.576 154.829 6.848ZM153.629 8.496H160.093V7.904H153.629V8.496ZM153.629 9.984H160.093V9.376H153.629V9.984ZM153.629 11.472H160.093V10.864H153.629V11.472ZM166.061 14.624V12.944H169.293C168.925 11.696 168.045 10.688 168.045 10.688L169.693 10.176C169.693 10.176 170.717 11.392 171.021 12.576L169.981 12.944H171.853V9.888H166.733V8.24H171.853V6.672H169.709V6.016C168.093 7.408 166.877 8.016 166.797 8.016C166.765 8.016 166.733 8 166.701 7.952C166.349 7.504 165.053 6.672 165.053 6.672C169.533 4.848 171.965 0.815999 172.045 0.624C172.045 0.624 173.453 0.912 173.853 1.04C173.965 1.072 174.045 1.152 174.045 1.216C174.045 1.312 173.949 1.392 173.709 1.44C174.541 2.432 176.957 4.992 180.557 6.256C180.557 6.256 179.261 7.216 178.877 7.728C178.829 7.776 178.813 7.792 178.765 7.792C178.669 7.792 177.245 7.088 175.805 5.888V6.672H173.677V8.24H178.797V9.888H173.677V12.944H174.381C174.685 12.336 175.181 11.248 175.533 10.096C175.533 10.096 177.149 10.56 177.437 10.688C177.597 10.752 177.693 10.848 177.693 10.928C177.693 11.008 177.549 11.088 177.229 11.088C177.213 11.088 177.197 11.088 177.181 11.088C176.925 11.664 176.525 12.4 176.221 12.944H179.469V14.624H166.061ZM170.717 5.088H174.893C173.949 4.208 173.197 3.344 172.733 2.784C172.237 3.424 171.565 4.24 170.717 5.088Z" fill="#1F2937"/>
</svg>
