<svg width="248" height="21" viewBox="0 0 248 21" fill="none" xmlns="http://www.w3.org/2000/svg">
<path d="M20.208 13.742L18.624 15.524C18.602 15.546 18.536 15.59 18.514 15.59C18.492 15.59 18.492 15.59 18.492 15.59C17.612 14.732 16.622 14.05 15.588 13.5C14.488 16.316 12.464 18.384 9.12 19.396C9.076 19.396 9.054 19.418 9.01 19.418C8.966 19.418 8.922 19.396 8.878 19.352C8.394 18.802 6.458 17.68 6.458 17.68C10.286 17.196 12.508 15.326 13.608 12.62C11.716 11.96 9.802 11.674 8.152 11.674C7.91 12.136 7.712 12.576 7.47 13.016C6.282 15.26 4.962 17.548 2.762 17.548C1.464 17.548 0.43 16.602 0.43 15.04C0.43 11.696 3.884 10.024 6.854 9.76C6.898 9.672 6.942 9.584 6.986 9.518C7.8 7.934 8.702 6.218 9.406 4.964C8.548 5.184 7.492 5.492 6.392 5.492C6.106 5.492 5.82 5.47 5.534 5.426L4.852 3.402C4.83 3.336 4.808 3.292 4.808 3.27C4.808 3.226 4.83 3.182 4.896 3.182C4.918 3.182 4.94 3.204 4.984 3.204C5.666 3.358 6.304 3.424 6.942 3.424C8.174 3.424 9.362 3.16 10.638 2.83C10.902 2.764 11.012 2.412 11.254 2.412C11.364 2.412 12.552 3.028 12.992 3.402C13.102 3.49 13.146 3.578 13.146 3.644C13.146 3.776 12.97 3.864 12.684 3.93C11.386 5.668 10.198 7.758 9.142 9.782C10.792 9.87 12.508 10.134 14.18 10.618C14.334 9.738 14.422 8.77 14.422 7.758C14.422 7.208 14.422 7.164 14.554 7.164C14.686 7.164 15.83 7.428 16.776 7.67C17.15 7.78 17.304 7.912 17.304 8.044C17.304 8.22 16.974 8.396 16.666 8.418C16.578 9.452 16.446 10.442 16.248 11.366C17.722 11.982 19.086 12.774 20.208 13.742ZM5.842 11.74C3.84 12.202 2.432 13.434 2.432 14.71C2.432 15.128 2.63 15.348 2.916 15.348C3.422 15.348 4.06 15.084 5.842 11.74ZM34.926 2.61L34.288 4.942C34.266 4.986 34.244 5.03 34.222 5.03C34.2 5.03 34.178 5.03 34.156 5.008C32.616 4.458 30.548 4.238 28.37 4.238C27.754 4.238 27.138 4.238 26.522 4.282L27.534 2.17C28.106 2.148 28.7 2.148 29.272 2.148C31.274 2.148 33.254 2.258 34.926 2.61ZM26.83 5.338L28.876 5.91C28.678 7.296 28.018 9.892 27.886 11.19C30.482 9.342 32.792 8.792 34.684 8.792C38.094 8.792 39.81 10.684 39.81 12.84C39.81 15.37 37.434 19.286 28.766 19.286C28.59 19.286 28.436 19.286 28.26 19.286C28.172 19.286 28.106 19.264 28.062 19.176C27.842 18.538 26.698 17.086 26.61 16.954C27.314 16.998 27.996 17.02 28.678 17.02C35.41 17.02 37.302 14.446 37.302 12.884C37.302 11.762 36.334 10.838 34.376 10.838C30.548 10.838 28.084 13.94 27.842 14.424C27.754 14.424 25.95 14.49 25.774 14.49C25.664 14.49 25.62 14.49 25.62 14.358C25.664 12.378 26.016 10.068 26.302 8.198C26.478 7.032 26.61 6.064 26.632 5.47C26.632 5.36 26.676 5.338 26.764 5.338C26.786 5.338 26.808 5.338 26.83 5.338ZM56.486 5.492L58.664 4.81C61.282 7.076 63.438 11.344 63.438 14.27C63.438 14.336 63.438 14.424 63.438 14.512L61.128 15.546C61.084 15.568 61.062 15.568 61.04 15.568C60.974 15.568 60.952 15.524 60.952 15.414C60.952 15.282 60.952 15.15 60.952 15.018C60.952 11.872 59.192 8.022 56.486 5.492ZM48.368 5.932C48.258 7.516 48.17 9.43 48.17 10.486C48.17 12.642 48.5 14.6 50.392 15.59C50.612 15.7 50.81 15.766 50.986 15.766C51.778 15.766 52.372 14.688 53.384 11.916C53.384 11.916 54.374 13.918 54.902 14.49C54.924 14.512 54.946 14.556 54.946 14.6C54.946 14.622 54.924 14.666 54.924 14.688C53.582 17.328 52.372 18.318 51.096 18.318C50.568 18.318 50.018 18.142 49.446 17.834C45.904 15.92 45.904 12.048 45.904 7.318C45.904 5.448 45.882 5.272 45.882 5.14C45.882 5.03 45.904 5.008 45.948 5.008C45.97 5.008 45.992 5.008 46.036 5.008C46.366 5.03 48.016 5.228 48.566 5.316C48.83 5.36 48.94 5.47 48.94 5.58C48.94 5.712 48.764 5.866 48.368 5.932ZM89.2617 3.512L89.1957 5.492C89.1737 5.58 89.1737 5.646 89.0857 5.646C87.5237 5.932 85.8517 6.174 84.2457 6.372C84.2677 7.296 84.2897 8.22 84.3117 9.078C85.7857 8.858 87.3697 8.506 88.6017 8V10.134C88.5797 10.2 88.5797 10.266 88.5137 10.288C87.4137 10.596 85.8957 10.86 84.3997 11.058C84.4657 12.29 84.5537 13.412 84.5977 14.314C86.9737 15.018 89.0197 16.03 90.6037 17.306L88.6897 18.934C88.6677 18.934 88.6457 18.956 88.6237 18.956C88.6017 18.956 88.5797 18.934 88.5357 18.912C87.4797 17.812 85.8737 16.91 84.6637 16.404C84.3337 18.582 82.4857 19.572 80.5057 19.572C78.2397 19.572 75.9517 18.274 75.9517 16.514C75.9517 14.93 77.8657 13.786 80.8797 13.786C81.4297 13.786 81.9797 13.83 82.5077 13.896L82.3757 11.256C81.9357 11.3 81.5397 11.322 81.1657 11.322C80.9237 11.322 80.6817 11.344 80.4617 11.344C78.0637 11.344 76.6337 10.794 76.6337 9.87C76.6337 9.144 77.2497 8.682 78.0637 8.066L79.9117 8.396C79.1197 9.034 79.0757 9.056 79.0757 9.144C79.0757 9.32 79.4497 9.43 80.3957 9.43C80.6157 9.43 80.8797 9.408 81.1657 9.408C81.4957 9.386 81.8697 9.386 82.2657 9.342C82.2217 8.44 82.1997 7.538 82.1777 6.592C80.0877 6.812 79.0757 6.856 78.3937 6.856C77.4037 6.856 76.3477 6.768 75.5117 6.438C75.5117 6.438 75.2037 4.48 75.1597 4.37C75.1597 4.326 75.1597 4.282 75.1597 4.26C75.1597 4.172 75.1817 4.128 75.2477 4.128C75.2697 4.128 75.3137 4.128 75.3577 4.15C76.6777 4.612 77.7337 4.788 78.9217 4.788C79.0757 4.788 79.9117 4.788 82.1337 4.568V4.128C82.1337 3.182 82.0897 2.148 82.0457 1.004C82.0457 1.004 83.7837 1.092 84.4877 1.158C84.7957 1.18 84.9717 1.29 84.9717 1.4C84.9717 1.532 84.7957 1.664 84.3777 1.796C84.3337 2.456 84.2897 3.578 84.2677 4.326C85.8517 4.128 87.5897 3.864 89.2617 3.512ZM82.5957 15.876C81.9357 15.7 81.1877 15.59 80.4397 15.59C80.1977 15.59 78.1077 15.59 78.1077 16.536C78.1077 17.284 79.5377 17.592 80.3737 17.592C81.5397 17.592 82.4417 17.042 82.5957 15.876ZM99.9977 5.756L99.2057 3.644C99.1837 3.622 99.1837 3.578 99.1837 3.556C99.1837 3.512 99.2277 3.468 99.2937 3.468C99.3157 3.468 99.3157 3.468 99.3377 3.468C99.8217 3.534 100.35 3.578 100.878 3.578C102.814 3.578 105.058 3.16 106.972 2.5C107.214 2.412 107.302 2.258 107.434 2.258C107.588 2.258 109.458 3.556 109.458 3.886C109.458 4.018 109.282 4.084 108.974 4.194C107.126 5.91 104.86 7.978 103.144 9.54C103.078 9.606 103.034 9.65 103.034 9.65C103.034 9.672 103.056 9.672 103.056 9.672C103.1 9.672 103.166 9.628 103.21 9.628C104.31 9.188 105.498 8.946 106.62 8.946C109.568 8.946 112.164 10.596 112.164 13.368C112.164 16.756 108.622 19.506 104.508 19.506C101.67 19.506 99.2717 18.318 99.2717 16.36C99.2717 14.842 100.702 13.962 102.374 13.962C104.706 13.962 106.202 15.414 106.202 17.108C106.202 17.152 106.202 17.174 106.202 17.196C108.71 16.514 109.722 14.71 109.722 13.5C109.722 10.794 106.708 10.772 106.18 10.772C103.958 10.772 101.032 11.52 98.5677 14.6C98.5237 14.644 98.4797 14.666 98.4577 14.666C98.4137 14.666 98.3917 14.666 98.3477 14.644L96.3897 13.5C96.3457 13.478 96.3237 13.434 96.3237 13.412C96.3237 13.368 96.3457 13.324 96.3677 13.302C97.8637 11.938 99.1617 10.948 100.064 10.178C100.196 10.068 100.306 9.98 100.372 9.892C103.034 7.362 105.564 4.854 105.564 4.678C105.564 4.656 105.564 4.656 105.542 4.656C105.498 4.656 105.454 4.678 105.366 4.7C103.672 5.316 101.956 5.756 100.328 5.756C100.218 5.756 100.108 5.756 99.9977 5.756ZM104.068 17.526C104.09 17.394 104.09 17.284 104.09 17.152C104.09 16.954 104.068 15.48 102.198 15.48C101.142 15.48 101.12 16.096 101.12 16.228C101.12 17.13 102.66 17.526 103.914 17.526C103.98 17.526 104.024 17.526 104.068 17.526ZM133.042 1.334V14.006H130.974V13.346H129.588C129.566 14.732 129.544 17.174 129.544 17.284C129.566 17.966 129.83 18.274 131.26 18.274C133.768 18.274 134.23 17.79 134.34 14.424C134.34 14.424 135.836 15.81 136.452 16.074C136.474 16.074 136.518 16.118 136.518 16.25C136.078 19.814 134.34 20.276 131.436 20.276C129.764 20.276 127.454 20.232 127.454 17.724C127.454 17.724 127.454 17.702 127.454 17.68C127.476 16.382 127.498 14.49 127.498 13.346H125.716V13.544C125.716 16.536 124.088 19.946 118.214 20.65C118.126 20.65 118.06 20.65 118.016 20.584C117.752 20.012 116.322 18.758 116.322 18.758C122.416 18.362 123.516 16.008 123.516 13.544V13.346H122.306V14.138H120.26V1.334H133.042ZM130.974 3.204H122.306V4.744H130.974V3.204ZM130.974 6.526H122.306V8.088H130.974V6.526ZM130.974 9.87H122.306V11.564H130.974V9.87ZM144.768 3.776L145.736 1.928C147.276 2.324 148.816 2.522 150.576 2.522C151.39 2.522 152.248 2.478 153.172 2.39C153.172 2.39 152.248 3.974 152.006 4.612C151.984 4.678 151.918 4.722 151.852 4.722C151.764 4.722 151.654 4.722 151.566 4.722C149.3 4.722 146.77 4.48 144.768 3.776ZM143.712 9.518L142.59 7.296C142.568 7.23 142.546 7.186 142.546 7.164C142.546 7.098 142.59 7.076 142.656 7.076C142.678 7.076 142.7 7.076 142.722 7.076C143.272 7.186 143.888 7.23 144.504 7.23C147.21 7.23 151.698 6.064 151.962 5.91C152.094 5.822 152.182 5.734 152.292 5.734C152.512 5.734 154.36 6.922 154.36 7.186C154.36 7.318 154.228 7.428 153.832 7.516C152.82 8.308 151.654 9.606 150.752 10.486C149.828 11.41 149.08 12.268 147.914 13.346C148.068 13.302 148.2 13.28 148.31 13.28C148.42 13.28 148.53 13.302 148.618 13.302C149.652 13.5 149.982 14.424 150.312 15.282C150.862 16.756 151.104 17.13 152.644 17.13C154.052 17.13 155.592 16.8 156.89 16.492C156.89 16.492 156.23 18.274 156.12 18.934C156.12 19.022 156.054 19.066 155.966 19.088C155.108 19.242 153.832 19.396 152.644 19.396C149.828 19.396 149.146 18.582 148.464 16.382C148.112 15.282 147.848 14.732 147.32 14.732C146.902 14.732 146.484 15.062 146.11 15.392C145.076 16.294 143.536 18.208 142.436 19.418C142.436 19.418 140.874 18.626 140.104 18.23C140.06 18.208 140.038 18.186 140.038 18.142C140.038 18.12 140.06 18.098 140.06 18.076C141.864 16.294 144.196 14.402 144.878 13.786C146.044 12.708 148.662 9.87 150.136 8.176C147.012 9.122 145.362 9.518 143.712 9.518ZM180.254 4.216V6.174H178.582C178.252 9.54 177.416 12.334 176.008 14.6C177.372 16.338 179.154 17.68 181.288 18.604C181.288 18.604 179.638 19.506 179.132 20.034C179.11 20.056 179.066 20.078 179.044 20.078C178.978 20.078 176.778 18.912 174.776 16.294C173.214 18.142 171.168 19.528 168.616 20.518C168.572 20.54 168.528 20.562 168.484 20.562C168.462 20.562 168.44 20.54 168.418 20.518C167.89 19.968 165.954 19.11 165.954 19.11C169.474 18.208 171.938 16.624 173.61 14.512C172.84 13.148 172.224 11.564 171.85 9.716C171.234 11.146 171.124 11.366 171.014 11.366C170.992 11.366 170.97 11.366 170.948 11.344C170.376 11.102 168.836 10.992 168.836 10.992C171.476 7.45 172.092 0.761999 172.092 0.761999C172.092 0.761999 173.808 0.959999 174.358 1.092C174.622 1.158 174.776 1.29 174.776 1.4C174.776 1.554 174.556 1.686 174.05 1.708C173.94 2.28 173.764 3.16 173.5 4.216H180.254ZM170.618 2.478V4.304H167.098V7.934H169.43V9.76H167.098V14.556C168.506 14.072 169.76 13.588 170.596 13.214C170.596 13.214 170.552 13.83 170.552 14.402C170.552 14.666 170.574 14.93 170.596 15.084C170.596 15.106 170.596 15.128 170.596 15.128C170.596 15.326 164.744 17.46 161.972 18.208C161.972 18.296 161.994 18.362 161.994 18.428C161.994 18.78 161.862 18.956 161.73 18.956C161.62 18.956 161.51 18.868 161.4 18.692C161.07 18.076 160.41 16.404 160.41 16.404C160.85 16.338 161.356 16.228 161.906 16.096V8.638C161.906 8.638 161.906 7.582 161.84 6.988C161.84 6.988 163.556 7.076 164.084 7.142C164.37 7.186 164.524 7.296 164.524 7.406C164.524 7.538 164.304 7.714 163.82 7.78C163.798 8.132 163.776 8.682 163.776 8.682V15.612C164.238 15.48 164.722 15.326 165.206 15.172V4.304H161.136V2.478H170.618ZM176.492 6.174H173.016L172.972 6.306C173.192 8.792 173.808 10.926 174.776 12.708C175.766 10.794 176.294 8.594 176.492 6.174ZM202.87 9.012L200.912 10.354C200.692 9.936 200.296 9.232 199.746 8.33C197.634 8.616 192.728 9.254 188.966 9.628C188.944 10.068 188.812 10.222 188.702 10.222C188.57 10.222 188.438 10.068 188.372 9.914C188.174 9.386 187.624 7.626 187.624 7.626C188.46 7.582 189.34 7.516 190.242 7.45C192.046 3.886 192.882 0.673999 192.882 0.673999C192.882 0.673999 194.708 1.092 195.522 1.4C195.698 1.466 195.83 1.598 195.83 1.73C195.83 1.884 195.676 1.994 195.214 1.994C195.148 1.994 195.082 1.994 194.994 1.994C194.752 2.478 193.806 4.876 192.64 7.252C194.972 7.032 197.128 6.79 198.558 6.614C197.986 5.822 197.326 4.986 196.578 4.172L198.272 3.116C200.802 5.668 202.87 9.012 202.87 9.012ZM188.834 3.952L187.206 5.536C186.062 3.974 183.752 2.456 183.752 2.456L185.314 1.136C185.314 1.136 187.602 2.566 188.834 3.952ZM200.626 11.366V20.496H198.426V19.286H191.892V20.606H189.736V11.366H200.626ZM187.712 8.66L186.348 10.464C185.094 9.1 182.476 7.824 182.454 7.824L183.862 6.24C183.862 6.24 186.458 7.538 187.712 8.66ZM185.094 19.528C185.204 19.704 185.248 19.858 185.248 19.99C185.248 20.1 185.204 20.188 185.072 20.188C185.028 20.188 184.94 20.166 184.852 20.122C183.972 19.726 182.674 18.846 182.674 18.846C184.412 16.954 186.106 13.06 186.678 11.498C186.678 11.498 187.668 12.818 188.196 13.17C188.24 13.192 188.262 13.236 188.262 13.28C188.262 13.434 186.854 16.668 185.094 19.528ZM198.426 13.258H191.892V17.394H198.426V13.258ZM221.13 3.468H214.288C213.386 4.722 212.638 5.294 212.55 5.294C212.528 5.294 212.506 5.294 212.462 5.272C211.956 5.008 210.262 4.722 210.262 4.722C212.858 3.182 213.804 0.629999 213.804 0.629999C213.804 0.629999 215.234 0.806 215.806 0.894C216.092 0.937999 216.268 1.048 216.268 1.158C216.268 1.29 216.026 1.444 215.542 1.466C215.542 1.466 215.432 1.664 215.256 1.994H222.12C222.252 1.994 222.384 1.862 222.538 1.862C222.626 1.862 224.056 2.786 224.056 3.028C224.056 3.116 223.946 3.204 223.66 3.292C223.66 3.292 222.296 4.898 221.042 5.69C220.976 5.734 220.932 5.756 220.888 5.756C220.866 5.756 220.822 5.734 220.778 5.712C220.272 5.404 218.864 4.986 218.864 4.986C220.228 4.282 221.13 3.468 221.13 3.468ZM217.544 4.502L217.566 4.612C217.676 5.756 219.106 7.164 224.936 7.472C224.936 7.472 223.352 8.55 222.956 9.1C222.912 9.166 222.868 9.188 222.802 9.188C222.802 9.188 218.622 8.946 216.664 6.46C215.718 7.648 213.914 8.704 210.68 8.99C210.482 8.99 210.438 8.924 210.438 8.924C210.174 8.55 209.052 7.824 208.678 7.604C207.952 7.89 207.094 8.242 206.17 8.572C206.17 8.616 206.17 8.66 206.17 8.682C206.17 8.968 206.082 9.144 205.95 9.144C205.862 9.144 205.752 9.056 205.642 8.902C205.268 8.374 204.63 6.988 204.63 6.988C207.27 6.438 210.394 4.898 210.394 4.898C210.394 4.898 210.416 6.108 210.57 6.592C210.592 6.636 210.592 6.658 210.592 6.68C210.592 6.746 209.492 7.252 208.876 7.516C213.672 7.34 215.52 5.998 215.542 4.546C215.542 4.37 215.498 3.908 215.498 3.908C215.498 3.908 217.016 3.93 217.786 3.996C218.05 4.018 218.16 4.106 218.16 4.194C218.16 4.304 217.94 4.436 217.588 4.48C217.588 4.48 217.588 4.458 217.566 4.458C217.566 4.458 217.544 4.48 217.544 4.502ZM210.878 2.94L209.646 4.48C207.952 3.336 205.4 2.566 205.4 2.566L206.61 1.18C206.61 1.18 209.228 1.928 210.878 2.94ZM215.784 18.23L217.28 16.976C218.468 17.526 220.492 18.494 224.782 18.758C224.782 18.758 223.396 19.858 223.044 20.408C223 20.474 222.956 20.496 222.912 20.496C222.648 20.496 219.524 20.166 215.784 18.23ZM221.306 9.122V17.196H219.326V16.756H210.042V17.218H208.084V9.122H221.306ZM211.736 16.932C213.606 18.054 213.628 18.34 213.628 18.384C213.628 18.494 213.496 18.56 213.298 18.56C213.166 18.56 212.99 18.538 212.836 18.472C212.836 18.472 209.756 20.254 206.148 20.716C206.126 20.716 206.082 20.738 206.06 20.738C205.994 20.738 205.928 20.716 205.906 20.65C205.51 20.078 204.124 19.044 204.124 19.044C208.502 18.758 211.318 17.306 211.736 16.932ZM219.326 10.398H210.02V11.344H219.326V10.398ZM219.326 12.466H210.02V13.412H219.326V12.466ZM219.326 14.556H210.042V15.502H219.326V14.556ZM244.846 11.256V13.17H237.586V17.768H238.752C239.148 17.042 240.006 15.326 240.556 13.522C240.556 13.522 242.338 14.072 242.734 14.248C242.954 14.336 243.086 14.49 243.086 14.6C243.086 14.732 242.91 14.842 242.47 14.842C242.448 14.842 242.426 14.842 242.404 14.842C241.986 15.766 241.282 16.998 240.842 17.768H245.682V19.704H227.422V17.768H232.152C231.624 15.832 230.304 14.27 230.304 14.27L232.13 13.654C232.13 13.654 233.582 15.414 234.066 17.152C234.066 17.174 233.01 17.57 232.46 17.768H235.518V13.17H228.258V11.256H235.518V8.792H232.196V7.868C231.074 8.814 229.776 9.738 228.302 10.53C228.258 10.552 228.214 10.574 228.17 10.574C228.126 10.574 228.104 10.552 228.06 10.508C227.664 10.002 226.124 9.122 226.124 9.122C232.526 6.35 235.716 0.849999 235.782 0.717999C235.782 0.717999 237.366 1.07 237.828 1.18C238.004 1.224 238.114 1.312 238.114 1.422C238.114 1.532 237.96 1.664 237.586 1.73C238.642 3.006 241.942 6.636 247.09 8.55C247.09 8.55 245.484 9.606 245.066 10.2C245.044 10.244 245 10.266 244.978 10.266C244.89 10.266 243.174 9.474 240.864 7.626V8.792H237.586V11.256H244.846ZM233.23 6.966H240.094C238.422 5.514 237.168 4.084 236.508 3.27C235.782 4.26 234.682 5.602 233.23 6.966Z" fill="black"/>
</svg>
