<svg width="30" height="31" viewBox="0 0 30 31" fill="none" xmlns="http://www.w3.org/2000/svg">
<path d="M17.2864 12.6346C17.1496 12.25 16.8973 11.917 16.564 11.6813C16.2308 11.4456 15.8328 11.3186 15.4246 11.3178H13.8963C13.4602 11.3155 13.0389 11.475 12.7136 11.7654C12.3883 12.0558 12.1823 12.4565 12.1354 12.89C12.0884 13.3235 12.2039 13.759 12.4594 14.1123C12.715 14.4656 13.0924 14.7116 13.5188 14.8027L15.846 15.3104C16.3219 15.4146 16.7425 15.6909 17.0269 16.0864C17.3114 16.4818 17.4398 16.9684 17.3873 17.4527C17.3348 17.937 17.1052 18.3848 16.7426 18.7101C16.38 19.0354 15.91 19.2152 15.4229 19.215H14.1078C13.248 19.215 12.5169 18.6667 12.2461 17.9M14.7662 11.3178V9.34264M14.7662 21.1902V19.2167M6.53384 26.4979V22.2666H10.7651" stroke="#30BCA7" stroke-width="2" stroke-linecap="round" stroke-linejoin="round"/>
<path d="M25.8114 13.4757C26.2607 15.871 25.902 18.3476 24.7915 20.517C23.681 22.6863 21.8817 24.4255 19.6758 25.4616C17.47 26.4977 14.9826 26.7721 12.604 26.2416C10.2254 25.7111 8.09025 24.4058 6.5337 22.5307M4.18788 17.5242C3.73856 15.129 4.09729 12.6523 5.20777 10.483C6.31824 8.31363 8.1176 6.57443 10.3234 5.53833C12.5293 4.50223 15.0167 4.22789 17.3953 4.75837C19.7739 5.28884 21.909 6.59411 23.4656 8.46929" stroke="#30BCA7" stroke-width="2" stroke-linecap="round" stroke-linejoin="round"/>
<path d="M23.4658 4.50204V8.73332H19.2345" stroke="#30BCA7" stroke-width="2" stroke-linecap="round" stroke-linejoin="round"/>
</svg>
