<svg width="7" height="11" viewBox="0 0 7 11" fill="none" xmlns="http://www.w3.org/2000/svg">
<path d="M0.293893 10.7287C0.097964 10.5478 0 10.3176 0 10.0381C0 9.75859 0.097964 9.5284 0.293893 9.34753L4.46183 5.5L0.293893 1.65247C0.097964 1.4716 0 1.2414 0 0.961883C0 0.682362 0.097964 0.452167 0.293893 0.2713C0.489821 0.0904331 0.739185 0 1.04198 0C1.34478 0 1.59415 0.0904331 1.79008 0.2713L6.70611 4.80942C6.81298 4.90807 6.88885 5.01495 6.93374 5.13004C6.97791 5.24514 7 5.36846 7 5.5C7 5.63154 6.97791 5.75486 6.93374 5.86995C6.88885 5.98505 6.81298 6.09193 6.70611 6.19058L1.79008 10.7287C1.59415 10.9096 1.34478 11 1.04198 11C0.739185 11 0.489821 10.9096 0.293893 10.7287Z" fill="black"/>
</svg>
