<svg width="21" height="17" viewBox="0 0 21 17" fill="none" xmlns="http://www.w3.org/2000/svg">
<path d="M6.38047 17C5.98449 17 5.63321 16.8584 5.32664 16.5752L0.431113 11.9931C0.296989 11.8666 0.191606 11.7129 0.114964 11.5322C0.0383212 11.3514 0 11.1676 0 10.9809C0 10.7941 0.0383212 10.6073 0.114964 10.4205C0.191606 10.2337 0.296989 10.0801 0.431113 9.9596L5.32664 5.3865C5.63321 5.09729 5.98449 4.95268 6.38047 4.95268C6.80839 4.95268 7.15009 5.07921 7.40557 5.33227C7.66104 5.5793 7.78878 5.8896 7.78878 6.26316C7.78878 6.48006 7.74407 6.66684 7.65465 6.8235C7.57162 6.98015 7.45985 7.12174 7.31934 7.24827L5.72901 8.71239L3.401 10.4928L2.80703 9.75173L6.47628 9.59809H17.005C17.4074 9.59809 17.6948 9.51373 17.8672 9.34503C18.0461 9.17632 18.1355 8.90218 18.1355 8.52259V3.82297C18.1355 3.44941 18.0461 3.18129 17.8672 3.01861C17.6948 2.8499 17.4074 2.76555 17.005 2.76555H12.2436C11.8221 2.76555 11.4676 2.62998 11.1802 2.35885C10.8992 2.08772 10.7587 1.76236 10.7587 1.38278C10.7587 0.997165 10.8992 0.671806 11.1802 0.406699C11.4676 0.135566 11.8221 0 12.2436 0H17.1583C18.4804 0 19.4512 0.29222 20.0707 0.876661C20.6902 1.45508 21 2.3709 21 3.62414V8.73046C21 10.0018 20.6902 10.9236 20.0707 11.496C19.4512 12.0684 18.4804 12.3546 17.1583 12.3546H6.47628L2.80703 12.201L3.401 11.4599L5.72901 13.2403L7.31934 14.7044C7.45985 14.8309 7.57162 14.9725 7.65465 15.1292C7.74407 15.2858 7.78878 15.4726 7.78878 15.6895C7.78878 16.0631 7.66104 16.3734 7.40557 16.6204C7.15009 16.8735 6.80839 17 6.38047 17Z" fill="#4B5563"/>
</svg>
